<svg height="512pt" viewBox="0 0 512 512" width="512pt" xmlns="http://www.w3.org/2000/svg"><path d="m153.769531 232.835938c-1.695312 7.480468-2.769531 15.179687-2.769531 23.164062 0 16.863281 4.371094 32.582031 11.464844 46.714844 21.554687 3.59375 43.488281-3.148438 59.273437-17.886719-3.300781-3.917969-5.964843-8.332031-7.785156-13.21875-24.382813-5.066406-45.699219-19.085937-60.183594-38.773437zm0 0"/><path d="m263.296875 300.261719c-5.363281.882812-8.832031 1.125-15.417969-.082031-16.589844 18.429687-39.050781 29.722656-63.234375 32.386718 17.164063 16.003906 39.621094 26.089844 64.46875 27.738282 13.992188-16.855469 19.054688-38.9375 14.183594-60.042969zm0 0"/><path d="m168.925781 197.402344c7.511719 20.78125 24.226563 36.386718 45.089844 42.785156 1.769531-4.683594 4.328125-8.917969 7.46875-12.710938-7.796875-23.539062-6.394531-48.875 3.261719-71.191406-22.90625 7.210938-42.648438 21.609375-55.820313 41.117188zm0 0"/><path d="m358.230469 279.171875c1.695312-7.480469 2.769531-15.1875 2.769531-23.171875 0-16.863281-4.371094-32.585938-11.46875-46.726562-21.5625-3.613282-43.496094 3.136718-59.277344 17.890624 3.304688 3.917969 5.96875 8.335938 7.792969 13.226563 24.382813 5.066406 45.695313 19.089844 60.183594 38.78125zm0 0"/><path d="m343.074219 314.597656c-7.511719-20.777344-24.230469-36.382812-45.089844-42.785156-1.769531 4.683594-4.332031 8.917969-7.46875 12.710938 7.796875 23.539062 6.394531 48.875-3.261719 71.191406 22.902344-7.210938 42.648438-21.609375 55.820313-41.117188zm0 0"/><path d="m271 256c0-8.277344-6.722656-15-15-15s-15 6.722656-15 15 6.722656 15 15 15 15-6.722656 15-15zm0 0"/><path d="m262.1875 151.625c-13.847656 16.828125-18.476562 39.121094-13.628906 60.128906 5.855468-.984375 8.875-1.027344 14.960937.003906 16.527344-18.511718 39.203125-29.9375 63.386719-32.691406-17.269531-15.929687-39.792969-25.953125-64.71875-27.441406zm0 0"/><path d="m121 471.9375c-37.734375-23.671875-68.933594-56.765625-90-96.191406v106.253906h-31v30h151v-30h-30zm0 0"/><path d="m482 0v31h-226c-124.070312 0-225 100.929688-225 225s100.929688 225 225 225 225-100.929688 225-225c0-37.050781-9.316406-72.753906-26.421875-105h-114.773437c30.949218 24.761719 51.195312 62.371094 51.195312 105 0 74.441406-60.558594 135-135 135s-135-60.558594-135-135c0-72.078125 56.914062-130.621094 128.089844-134.300781l.699218-.699219h232.210938v30h30v-151zm0 0"/><path d="m121.917969 39.503906c-9.050781-5.410156-19.628907-8.503906-30.917969-8.503906-33.089844 0-60 26.910156-60 60 0 11.289062 3.09375 21.867188 8.503906 30.917969 20.777344-33.421875 48.992188-61.636719 82.414063-82.414063zm0 0"/><path d="m390.082031 472.496094c9.050781 5.410156 19.628907 8.503906 30.917969 8.503906 33.089844 0 60-26.910156 60-60 0-11.289062-3.09375-21.867188-8.503906-30.917969-20.777344 33.421875-48.992188 61.636719-82.414063 82.414063zm0 0"/></svg>